<?xml version="1.0" encoding="UTF-8" standalone="no"?>
<svg
   xmlns:dc="http://purl.org/dc/elements/1.1/"
   xmlns:cc="http://creativecommons.org/ns#"
   xmlns:rdf="http://www.w3.org/1999/02/22-rdf-syntax-ns#"
   xmlns:svg="http://www.w3.org/2000/svg"
   xmlns="http://www.w3.org/2000/svg"
   xmlns:sodipodi="http://sodipodi.sourceforge.net/DTD/sodipodi-0.dtd"
   xmlns:inkscape="http://www.inkscape.org/namespaces/inkscape"
   data-name="Layer 1"
   viewBox="0 0 100 100"
   x="0px"
   y="0px"
   version="1.1"
   id="svg12"
   sodipodi:docname="cerveau.svg"
   inkscape:version="0.92.1 r15371">
  <metadata
     id="metadata18">
    <rdf:RDF>
      <cc:Work
         rdf:about="">
        <dc:format>image/svg+xml</dc:format>
        <dc:type
           rdf:resource="http://purl.org/dc/dcmitype/StillImage" />
        <dc:title>Artboard 1 copy 21</dc:title>
      </cc:Work>
    </rdf:RDF>
  </metadata>
  <defs
     id="defs16">
    <marker
       inkscape:stockid="Arrow1Mend"
       orient="auto"
       refY="0.0"
       refX="0.0"
       id="Arrow1Mend"
       style="overflow:visible;"
       inkscape:isstock="true">
      <path
         id="path4508"
         d="M 0.0,0.0 L 5.0,-5.0 L -12.5,0.0 L 5.0,5.0 L 0.0,0.0 z "
         style="fill-rule:evenodd;stroke:#008000;stroke-width:1pt;stroke-opacity:1;fill:#008000;fill-opacity:1"
         transform="scale(0.4) rotate(180) translate(10,0)" />
    </marker>
    <marker
       inkscape:stockid="Arrow1Lend"
       orient="auto"
       refY="0.0"
       refX="0.0"
       id="Arrow1Lend"
       style="overflow:visible;"
       inkscape:isstock="true">
      <path
         id="path4502"
         d="M 0.0,0.0 L 5.0,-5.0 L -12.5,0.0 L 5.0,5.0 L 0.0,0.0 z "
         style="fill-rule:evenodd;stroke:#000000;stroke-width:1pt;stroke-opacity:1;fill:#000000;fill-opacity:1"
         transform="scale(0.8) rotate(180) translate(12.5,0)" />
    </marker>
  </defs>
  <sodipodi:namedview
     pagecolor="#ffffff"
     bordercolor="#666666"
     borderopacity="1"
     objecttolerance="10"
     gridtolerance="10"
     guidetolerance="10"
     inkscape:pageopacity="0"
     inkscape:pageshadow="2"
     inkscape:window-width="1920"
     inkscape:window-height="986"
     id="namedview14"
     showgrid="false"
     inkscape:zoom="2.36"
     inkscape:cx="50"
     inkscape:cy="50"
     inkscape:window-x="-11"
     inkscape:window-y="-11"
     inkscape:window-maximized="1"
     inkscape:current-layer="svg12" />
  <title
     id="title2">Artboard 1 copy 21</title>
  <path
     d="M87.94,27.2c-4.11-3.39-9.14-6.43-12.24-7.41l-.85-.27c-3.5-1.12-6.53-2.08-8.82-.61a4.36,4.36,0,0,0-1,.87,22.86,22.86,0,0,0-10.83-3.46,30.66,30.66,0,0,0-9.76.77c-1.41.37-3.15,1-3.82,1.85l-.33-.13c-3.31-1.26-8.08.08-14.17,4a78.41,78.41,0,0,0-9.89,7.68,6.75,6.75,0,0,0-.72.79A45.22,45.22,0,0,0,12,36.76c-1.47,2.8-1.94,4.86-1.44,6.25a5.93,5.93,0,0,0-1.28.46c-1.1.55-2,2.12-2.65,4.67A22.62,22.62,0,0,0,5.9,54c0,.22,0,.43,0,.63a5.12,5.12,0,0,0,.54,2.84,7.38,7.38,0,0,0-1.24,2.79,11,11,0,0,0,0,4.09A13.58,13.58,0,0,0,7,69.18a8,8,0,0,0,7,4.12,7.67,7.67,0,0,0,2.2-.33l.23-.08c-.75,4,.91,7,4.77,8.5A22.29,22.29,0,0,0,29.05,83h.11a15.39,15.39,0,0,0,3-.27h.07a.71.71,0,0,0,.37-.1,8.68,8.68,0,0,0,3.07-1.3l.23-.16a46.69,46.69,0,0,0,5.86-4.68l-1.34,6a.74.74,0,0,0,.48.87,10.29,10.29,0,0,0,1.7.4,6.92,6.92,0,0,0,1,.08,2.92,2.92,0,0,0,2-.63.8.8,0,0,0,.25-.52c.08-1.5,3.31-5.15,4.67-6.38l.37-.32c.63-.55.78-.71.83-1.44,0-.1,0-.21,0-.35a13.1,13.1,0,0,1,.47-1.84,13.67,13.67,0,0,0,.51-2.07,6.52,6.52,0,0,0,1.2.2,13.88,13.88,0,0,1,2,.32,15.82,15.82,0,0,0,3.31.46,7.61,7.61,0,0,0,1.49-.15,6.91,6.91,0,0,0,4.69-4,1,1,0,0,0,.08-.26l.67-.46c2.57-1.83,4-3.89,4.33-6.13a6.5,6.5,0,0,0-.36-3.2,7.16,7.16,0,0,0,1.49.16,10.3,10.3,0,0,0,3.21-.58c.76-.25,1.7-.52,2.79-.83C83,54.3,91.1,52,93.71,46.85a8.37,8.37,0,0,0,.2-6.9v0a5.93,5.93,0,0,0,1-2.4c.31-1.38-.28-3.08-1.76-5.06A32.42,32.42,0,0,0,87.94,27.2Zm-70,49.2a7.38,7.38,0,0,1,.16-4.26c.55-.3,1.09-.64,1.64-1,0,.19,0,.38,0,.57a25.25,25.25,0,0,0,.44,5.49,8.09,8.09,0,0,0,1.07,2.61A5.69,5.69,0,0,1,17.94,76.4Zm25.28-3.94a2.23,2.23,0,0,1-1.43-1.38,6.37,6.37,0,0,1-.06-2.25,13.07,13.07,0,0,0,.08-1.67V67.1a9.53,9.53,0,0,1,3.54.49,1,1,0,0,0-.05.18A11.35,11.35,0,0,1,43.22,72.46Zm-2.86-.93a3.54,3.54,0,0,0,1.92,2.15c-.39.46-.82.93-1.28,1.39l0,0a4.18,4.18,0,0,1-1.72-2.42,16,16,0,0,1-.38-4.06c0-.15,0-.3,0-.45.49-.19,1-.4,1.45-.63,0,.39,0,.78-.07,1.16A7.46,7.46,0,0,0,40.36,71.53Zm-3-2.87c0,2.8.08,5.68,2.49,7.5-.47.42-.94.81-1.4,1.19C36,75.82,36,73,35.91,69.66c0-.17,0-.35,0-.53a.71.71,0,0,0,0-.14C36.38,68.91,36.87,68.79,37.37,68.66Zm-3,.52c0,.17,0,.34,0,.5,0,3.27.09,6.63,2.81,8.64-.55.41-1.07.79-1.54,1.12l-.08-.06a6.07,6.07,0,0,1-2.24-3.89,29.87,29.87,0,0,1-.4-5.71c0-.18,0-.37,0-.55A14.05,14.05,0,0,0,34.4,69.18Zm-2.94.62a31,31,0,0,0,.43,6,7.73,7.73,0,0,0,2.5,4.52,7.85,7.85,0,0,1-2,.76C30.08,78.54,30,73.89,30,69v-.14a11.93,11.93,0,0,0,1.45.27v0C31.45,69.37,31.45,69.59,31.46,69.8Zm-3-.74c0,4.79.09,9.33,2.22,12.32-.3,0-.61.05-.92.06l-.08-.07a6.87,6.87,0,0,1-2.27-4.29,35.76,35.76,0,0,1-.4-6.25c0-.24,0-.47,0-.71a.73.73,0,0,0-.09-.35A12.19,12.19,0,0,0,28.5,69.06Zm-3,1.17c0,.2,0,.41,0,.61A36.42,36.42,0,0,0,26,77.37a9.39,9.39,0,0,0,1.68,4l-.86-.09a6.86,6.86,0,0,1-2.19-4.23,35.71,35.71,0,0,1-.41-6.25v-.31c.36-.06.73-.13,1.1-.23Zm-2.84.45v.16a38.37,38.37,0,0,0,.43,6.53,9.91,9.91,0,0,0,1.32,3.5l-.27-.07a.74.74,0,0,0-.32-.46c-2.53-1.7-2.57-4.92-2.61-8.65,0-.19,0-.39,0-.58a.71.71,0,0,0-.19-.49A8.91,8.91,0,0,0,22.7,70.68Zm28.51-.58a13.1,13.1,0,0,1-.47,1.84,13,13,0,0,0-.52,2.1c0,.17,0,.31,0,.41a.61.61,0,0,1,0,.14l-.32.29-.37.33a30.43,30.43,0,0,0-2.92,3.17,10.24,10.24,0,0,0-2.2,3.84A4.47,4.47,0,0,1,42,82.14l1.76-7.9a13.64,13.64,0,0,0,3-6.18c.86.31,1.72.66,2.51,1s1.38.56,2,.79A.77.77,0,0,0,51.21,70.1ZM93.46,37.19c-.21,1-.64,2.11-1.5,2.31-1.17.26-3.16-1.15-5.06-3.59-1.33-1.72-2.57-2.39-4-2.18-1.26.19-2.49,1.07-4.06,2.17-.78.56-1.66,1.18-2.66,1.81a6.75,6.75,0,0,1-5.1.84,19.88,19.88,0,0,1-4.8-1.91,22.39,22.39,0,0,0-2.37-1.08.73.73,0,0,0-.77.17.74.74,0,0,0-.19.77,10.26,10.26,0,0,1,.21,5c-.1.81-.21,1.64-.25,2.59a.76.76,0,0,0,.47.73.87.87,0,0,0,.28,0,.77.77,0,0,0,.56-.25,5.05,5.05,0,0,1,5-.81.76.76,0,0,0,1-.34.75.75,0,0,0-.34-1,5.82,5.82,0,0,0-3.81-.35,6.8,6.8,0,0,0-1.56.51l.12-.94a13.32,13.32,0,0,0,.1-4.15l.86.42c2,1,4.44,2.24,7.09,2.24A7.91,7.91,0,0,0,77,39c1-.65,1.94-1.29,2.74-1.85a9.89,9.89,0,0,1,3.41-1.91c.6-.09,1.37,0,2.6,1.61A15.08,15.08,0,0,0,88.91,40a4.36,4.36,0,0,0,3.38,1l.35-.1a6.7,6.7,0,0,1-.27,5.3c-2.31,4.55-10,6.77-15.15,8.23-1.11.32-2.06.59-2.85.86-2.34.78-4.17.65-5.61-.39a8.54,8.54,0,0,1-2.35-3.17,5.8,5.8,0,0,0-3-2.57,9.61,9.61,0,0,0-3.72-.8,17.53,17.53,0,0,0-1.79.13c-2,.21-4.55.47-6.67-.89a10.84,10.84,0,0,0-5.56-1.38,29.34,29.34,0,0,0-4.42.24l-.26,0a4.6,4.6,0,0,1,.75-2.82c.82-1.48.23-3.88-.34-6.2a13.63,13.63,0,0,1-.55-3c.07-1.14.31-1.34,1.34-2.21.37-.32.84-.7,1.38-1.22a.75.75,0,0,0-1-1.09c-.51.49-.94.84-1.31,1.16-1.11.93-1.78,1.49-1.88,3.28A13.94,13.94,0,0,0,40,37.79c.43,1.75,1,4.15.49,5.11a8.39,8.39,0,0,0-.89,2.4,2.94,2.94,0,0,0,.23,2.05,1.32,1.32,0,0,0,1.28.6l.38,0c1.58-.19,6.41-.75,9,.91s5.5,1.34,7.64,1.12a15.63,15.63,0,0,1,1.63-.12,8.22,8.22,0,0,1,3.12.67,4.43,4.43,0,0,1,2.23,1.87,9.66,9.66,0,0,0,2.81,3.71l.08.06a.85.85,0,0,0,.15.3A5.19,5.19,0,0,1,69,60.09c-.25,1.81-1.5,3.53-3.72,5.11a8.09,8.09,0,0,1-3,1.47,2.46,2.46,0,0,1-1.74-.2c-1.6-.88-2-3.69-1.94-4.56a.76.76,0,0,0-.44-.73.77.77,0,0,0-.84.16c-.9.89-4.67,2.82-6.32,2.73a.76.76,0,0,0-.79.71.74.74,0,0,0,.7.79,10.38,10.38,0,0,0,4.18-1.13,19.64,19.64,0,0,0,2.12-1.15,10.26,10.26,0,0,0,.32,1.37,5.22,5.22,0,0,0,2.29,3.12,3.65,3.65,0,0,0,1.82.46,5.12,5.12,0,0,0,1.4-.21c-2,2.34-4.43,1.83-6.81,1.33A13.51,13.51,0,0,0,54,69a16.22,16.22,0,0,1-4.1-1.34,35.17,35.17,0,0,0-5.06-1.77,7.28,7.28,0,0,0-5,.23,13.9,13.9,0,0,1-9.08,1.35A4,4,0,0,0,32,64.85a3.6,3.6,0,0,1,2.33-3.22,4.11,4.11,0,0,0,3.49-2.37.75.75,0,0,0-.31-1,.77.77,0,0,0-1,.31,2.63,2.63,0,0,1-2.25,1.58.58.58,0,0,0-.26,0,5.25,5.25,0,0,0-1.69,1,4.85,4.85,0,0,0-1.79,3.67A3.23,3.23,0,0,1,29,67a11.83,11.83,0,0,1-7.8,2.15c0-.89,0-2.62.19-4.46.26-3.25.79-5.52,1.46-6.22,1-1.09,3.7-2.23,5.81-2.79,3-.79,5.54-.8,7.1,0a16.09,16.09,0,0,0,5.94,1.67,9,9,0,0,0,4.58-.69,12,12,0,0,1,4.39-1,11.57,11.57,0,0,1,5.77,1,.75.75,0,1,0,.67-1.34,13.09,13.09,0,0,0-6.54-1.19,13.84,13.84,0,0,0-5,1.19c-2.37,1.18-6.41.4-9.18-1-2.58-1.29-6.22-.61-8.16-.09-2.78.74-5.4,2-6.51,3.2-.95,1-1.56,3.34-1.87,7.15-.17,2.09-.19,4-.19,4.8a14.69,14.69,0,0,1-4,2.17A6.24,6.24,0,0,1,10.92,71a7,7,0,0,1-2.68-2.65,12,12,0,0,1-1.59-4.27,9.15,9.15,0,0,1,0-3.51,5.71,5.71,0,0,1,1.19-2.5,6.6,6.6,0,0,0,2-.46c1.41-.5,1.7,0,2.46,1.4A9.44,9.44,0,0,0,14,61.43a2.8,2.8,0,0,0,1.79.87,1.7,1.7,0,0,0,.61-.12c1.47-.59,1.76-3.14,1.82-4.21a.75.75,0,0,0-1.5-.08c-.09,1.77-.58,2.78-.88,2.9-.11,0-.39,0-.81-.45a8.22,8.22,0,0,1-1.41-2,5.3,5.3,0,0,0-1.44-1.91,2.91,2.91,0,0,0-2.84-.18A6,6,0,0,1,8,56.6a.85.85,0,0,0-.35-.08,1.07,1.07,0,0,1-.1-.35,12.25,12.25,0,0,1-.1-1.57c0-.2,0-.41,0-.64a21,21,0,0,1,.67-5.45c.76-2.94,1.62-3.57,1.87-3.7a5,5,0,0,1,3.45-.3A20.83,20.83,0,0,1,20,47.72a.73.73,0,0,0,.78,0,.76.76,0,0,0,.39-.67,32.39,32.39,0,0,1,1.89-9.84c1.35-4,3.07-7,4.7-8.26a.75.75,0,0,0,.15-1.05.76.76,0,0,0-1.05-.15c-2.56,1.93-4.37,6.45-5.23,9a38.8,38.8,0,0,0-1.93,9c-3-1.9-5.51-2.85-7.57-2.89l-.06-.11c-.55-.82-.1-2.75,1.23-5.29a43.31,43.31,0,0,1,3.39-5.29,4.15,4.15,0,0,1,.52-.59,77.35,77.35,0,0,1,9.69-7.52c5.59-3.58,10-4.9,12.84-3.83h0a3.45,3.45,0,0,1,2.36,2.66A19.68,19.68,0,0,0,37.3,25a18.24,18.24,0,0,0-4.45,3.75,17.26,17.26,0,0,0-3.39,6.32c-1.06,3.58-.91,6.58.45,8.93a8.57,8.57,0,0,0,5,3.84l.17,0a.75.75,0,0,0,.17-1.48,7.12,7.12,0,0,1-4.06-3.13c-1.15-2-1.25-4.59-.32-7.75A15.82,15.82,0,0,1,34,29.74,16.64,16.64,0,0,1,38,26.31a16.92,16.92,0,0,1,5.1-2.11.76.76,0,0,0,.61-.74,5.17,5.17,0,0,0-.43-1.9,4.9,4.9,0,0,0-1.38-1.84A9.51,9.51,0,0,1,45.4,18.4a29.62,29.62,0,0,1,9.11-.55A21,21,0,0,1,64.2,21,13.71,13.71,0,0,0,63,25.45v.09a1.87,1.87,0,0,1-1.58,2,1.68,1.68,0,0,1-1,0,8.18,8.18,0,0,0-2.22-.42,4.62,4.62,0,0,0-2.9.79c-1.4,1-2.12,2.82-2.16,5.45-.05,3.91.6,6.55,1.93,7.85a2.44,2.44,0,0,0,1.69.79l0-1.5h0s-.49,0-1-.83S54.62,37,54.67,33.32c0-2.13.54-3.56,1.52-4.25,1.25-.88,3.06-.41,3.78-.17a3.19,3.19,0,0,0,1.86.07,3.38,3.38,0,0,0,2.69-3.38c.36-2.88,1.12-4.65,2.32-5.42,1.7-1.09,4.41-.22,7.56.78l.85.27c2.89.91,7.82,3.91,11.73,7.14a30.63,30.63,0,0,1,5,5C93.14,35,93.66,36.27,93.46,37.19Z"
     id="path4" />
  <path
     d="M73.51,53.86a.74.74,0,0,0,.53-.22.75.75,0,0,0,0-1.06,1.84,1.84,0,0,1-.42-2.13,2.93,2.93,0,0,1,2.82-1.62h.15c2.14,0,4.41-1.59,6.07-2.76A9.51,9.51,0,0,1,84.36,45a2.63,2.63,0,0,1,1.8,1.27c.11.26.19.68-.39,1.3a.74.74,0,0,0,0,1.06.75.75,0,0,0,1.06,0,2.59,2.59,0,0,0,.68-2.93,4,4,0,0,0-3.2-2.17c-.61,0-1.29.46-2.54,1.34-1.53,1.08-3.63,2.55-5.31,2.49a4.67,4.67,0,0,0-2.63.68,4.16,4.16,0,0,0-1.62,1.84A3.33,3.33,0,0,0,73,53.64.73.73,0,0,0,73.51,53.86Z"
     id="path6" />
  <path
     d="M82,28.9a13.73,13.73,0,0,0-1.88-1.26,6.42,6.42,0,0,0-3.94-1A3.1,3.1,0,0,0,74,28.09a7.45,7.45,0,0,1-4,2.77,16.46,16.46,0,0,1-4.23.82.76.76,0,0,0-.71.79.75.75,0,0,0,.75.71h0a18.23,18.23,0,0,0,4.63-.9,8.89,8.89,0,0,0,4.82-3.38,1.62,1.62,0,0,1,1.15-.78c1.57-.24,3.88,1.32,4.64,1.94A.76.76,0,0,0,82.08,30,.75.75,0,0,0,82,28.9Z"
     id="path8" />
  <path
     d="M48.44,19.89a.75.75,0,0,0-.86,1.23c2.42,1.7,3.61,3.05,3.55,4,0,.56-.54,1.1-1.5,1.61C47.61,27.8,45.58,29,45,31c-.43,1.52,0,3.31,1.37,5.63,2.93,5,4,6,4.09,6.09l1-1.12h0s-1-1-3.8-5.74c-1.12-1.92-1.52-3.38-1.21-4.46.36-1.29,1.75-2.24,3.87-3.36,1.45-.76,2.22-1.72,2.29-2.83a4.13,4.13,0,0,0-1.34-3A17.77,17.77,0,0,0,48.44,19.89Z"
     id="path10" />
  <circle
     style="opacity:0.99599998;fill:none;fill-opacity:1;stroke:#008000;stroke-width:1.7;stroke-linejoin:round;stroke-miterlimit:4;stroke-dasharray:none;stroke-dashoffset:0;stroke-opacity:1"
     id="path4495"
     cx="58.68644"
     cy="63.771187"
     r="7.4152541" />
  <path
     style="fill:#008000;stroke:#008000;stroke-width:1px;stroke-linecap:butt;stroke-linejoin:miter;stroke-opacity:1;marker-end:url(#Arrow1Mend)"
     d="M 68,56.17 141.94915,11.016949"
     id="path4497"
     inkscape:connector-curvature="0" />
</svg>
