<?xml version="1.0" encoding="UTF-8" standalone="no"?>
<!-- Created with Inkscape (http://www.inkscape.org/) -->

<svg
   xmlns:dc="http://purl.org/dc/elements/1.1/"
   xmlns:cc="http://creativecommons.org/ns#"
   xmlns:rdf="http://www.w3.org/1999/02/22-rdf-syntax-ns#"
   xmlns:svg="http://www.w3.org/2000/svg"
   xmlns="http://www.w3.org/2000/svg"
   xmlns:xlink="http://www.w3.org/1999/xlink"
   xmlns:sodipodi="http://sodipodi.sourceforge.net/DTD/sodipodi-0.dtd"
   xmlns:inkscape="http://www.inkscape.org/namespaces/inkscape"
   width="12.56121mm"
   height="12.56122mm"
   viewBox="0 0 12.56121 12.56122"
   version="1.1"
   id="svg938"
   inkscape:version="0.92.3 (2405546, 2018-03-11)"
   sodipodi:docname="follicule.svg">
  <defs
     id="defs932">
    <linearGradient
       inkscape:collect="always"
       id="linearGradient1624">
      <stop
         style="stop-color:#000000;stop-opacity:1;"
         offset="0"
         id="stop1620" />
      <stop
         style="stop-color:#000000;stop-opacity:0;"
         offset="1"
         id="stop1622" />
    </linearGradient>
    <linearGradient
       inkscape:collect="always"
       xlink:href="#linearGradient1624"
       id="linearGradient1626"
       x1="106.67921"
       y1="200.41809"
       x2="149.05439"
       y2="200.41809"
       gradientUnits="userSpaceOnUse" />
  </defs>
  <sodipodi:namedview
     id="base"
     pagecolor="#ffffff"
     bordercolor="#666666"
     borderopacity="1.0"
     inkscape:pageopacity="0.0"
     inkscape:pageshadow="2"
     inkscape:zoom="2.8"
     inkscape:cx="27.572807"
     inkscape:cy="-14.781474"
     inkscape:document-units="mm"
     inkscape:current-layer="layer1"
     showgrid="false"
     inkscape:window-width="1600"
     inkscape:window-height="836"
     inkscape:window-x="0"
     inkscape:window-y="27"
     inkscape:window-maximized="1"
     fit-margin-top="0"
     fit-margin-left="0"
     fit-margin-right="0"
     fit-margin-bottom="0" />
  <metadata
     id="metadata935">
    <rdf:RDF>
      <cc:Work
         rdf:about="">
        <dc:format>image/svg+xml</dc:format>
        <dc:type
           rdf:resource="http://purl.org/dc/dcmitype/StillImage" />
        <dc:title></dc:title>
      </cc:Work>
    </rdf:RDF>
  </metadata>
  <g
     inkscape:label="Calque 1"
     inkscape:groupmode="layer"
     id="layer1"
     transform="translate(-100.15912,-189.22379)">
    <path
       style="opacity:1;fill:none;fill-opacity:0.41568627;fill-rule:nonzero;stroke:url(#linearGradient1626);stroke-width:0.66902339;stroke-linecap:round;stroke-miterlimit:4;stroke-dasharray:none;stroke-dashoffset:0;stroke-opacity:1"
       d="m 148.71981,200.4181 c 0,1.28197 -0.11975,2.53645 -0.34876,3.75321 -0.23012,1.22159 -0.5701,2.40518 -1.00993,3.54043 -0.48214,1.2444 -1.08403,2.43077 -1.79185,3.54542 -3.68313,5.8001 -10.23436,9.65912 -17.70252,9.65912 -11.5168,0 -20.85303,-9.17732 -20.85303,-20.49818 0,-11.32085 9.33623,-20.49819 20.85303,-20.49819 7.28763,0 13.7021,3.67473 17.43042,9.24194 1.08641,1.62226 1.94475,3.40522 2.53011,5.30473 0.41249,1.33853 0.68946,2.73492 0.8152,4.17379 0.0513,0.5859 0.0774,1.17879 0.0774,1.77773 z"
       id="path1489"
       inkscape:connector-curvature="0"
       sodipodi:nodetypes="sssssssssss" />
    <path
       style="opacity:1;fill:none;fill-opacity:0.41568627;fill-rule:nonzero;stroke:#000000;stroke-width:0.66902339;stroke-linecap:round;stroke-miterlimit:4;stroke-dasharray:none;stroke-dashoffset:0;stroke-opacity:1"
       d="m 117.18801,224.01506 c -0.23012,1.22159 -0.5701,2.40518 -1.00993,3.54043 -0.4821,1.2444 -1.08403,2.43077 -1.79185,3.54542 -3.68313,5.8001 -10.23436,9.65912 -17.702486,9.65912 -11.51683,0 -20.85306,-9.17732 -20.85306,-20.49818 0,-11.32085 9.33623,-20.49819 20.85306,-20.49819 7.287626,0 13.702106,3.67473 17.430416,9.24194 1.08642,1.62226 1.94472,3.40522 2.53008,5.30473 0.41251,1.33853 0.68948,2.73492 0.81524,4.17379 0.0512,0.5859 0.0774,1.17879 0.0774,1.77773"
       id="path1489-3"
       inkscape:connector-curvature="0"
       sodipodi:nodetypes="cssssssssc" />
    <path
       style="opacity:1;fill:none;fill-opacity:0.41568627;fill-rule:nonzero;stroke:#000000;stroke-width:0.66902339;stroke-linecap:round;stroke-miterlimit:4;stroke-dasharray:none;stroke-dashoffset:0;stroke-opacity:1"
       d="m 113.03028,230.44065 c -0.23012,1.22159 -0.5701,2.40518 -1.00993,3.54043 -0.4821,1.2444 -1.08403,2.43077 -1.79185,3.54542 -3.68313,5.8001 -10.234365,9.65912 -17.702495,9.65912 -11.51683,0 -20.85306,-9.17732 -20.85306,-20.49818 0,-11.32085 9.33623,-20.49819 20.85306,-20.49819 7.28763,0 13.702115,3.67473 17.430425,9.24194 1.08642,1.62226 1.94472,3.40522 2.53008,5.30473 0.41251,1.33853 0.68948,2.73492 0.81524,4.17379"
       id="path1489-3-5"
       inkscape:connector-curvature="0"
       sodipodi:nodetypes="csssssssc" />
    <path
       style="opacity:1;fill:none;fill-opacity:0.41568627;fill-rule:nonzero;stroke:#000000;stroke-width:0.66902339;stroke-linecap:round;stroke-miterlimit:4;stroke-dasharray:none;stroke-dashoffset:0;stroke-opacity:1"
       d="m 104.46085,226.23257 c -0.48213,1.2444 -1.08401,2.43077 -1.79183,3.54542 -3.683178,5.8001 -10.234368,9.65912 -17.702538,9.65912 -11.5168,0 -20.85306,-9.17732 -20.85306,-20.49818 0,-11.32085 9.33626,-20.49819 20.85306,-20.49819 7.28763,0 13.70211,3.67473 17.430418,9.24194 1.08642,1.62226 1.94472,3.40522 2.53008,5.30473"
       id="path1489-3-5-3"
       inkscape:connector-curvature="0"
       sodipodi:nodetypes="csssssc" />
    <path
       style="opacity:1;fill:none;fill-opacity:0.41568627;fill-rule:nonzero;stroke:#000000;stroke-width:0.66902339;stroke-linecap:round;stroke-miterlimit:4;stroke-dasharray:none;stroke-dashoffset:0;stroke-opacity:1"
       d="m 109.56704,214.37546 c -3.68313,5.8001 -10.234363,9.65912 -17.702523,9.65912 -11.5168,0 -20.85303,-9.17732 -20.85303,-20.49818 0,-11.32085 9.33623,-20.49819 20.85303,-20.49819 7.28763,0 13.702103,3.67473 17.430423,9.24194"
       id="path1489-3-5-3-5"
       inkscape:connector-curvature="0"
       sodipodi:nodetypes="csssc" />
  </g>
</svg>
